<svg width="917" height="700" viewBox="0 0 917 700" fill="none" xmlns="http://www.w3.org/2000/svg">
<g transform="translate(-120 -78) scale(1.22)">
<path d="M733.339 610.597C711.408 596.75 694.279 573.044 682.396 540.078C676.58 523.939 672.398 507.012 668.354 490.642C665.225 477.973 661.987 464.874 658.015 452.235C646.94 416.987 631.54 392.17 610.935 376.364C583.218 355.093 547.137 350.951 512.256 346.951C482.42 343.53 451.566 339.99 425.239 325.944C385.044 304.514 361.522 262.482 343.806 224.202C340.93 217.985 338.062 211.6 335.29 205.424C320.159 171.715 304.512 136.859 278.735 110.164C249.314 79.6895 199.081 60.3712 160.002 82.4009L159.289 81.1365C199.018 58.7426 249.972 78.276 279.786 109.153C305.738 136.03 321.437 171.004 336.62 204.826C339.391 210.999 342.255 217.381 345.129 223.587C362.743 261.649 386.102 303.409 425.927 324.66C452.01 338.574 482.722 342.098 512.423 345.505C547.499 349.527 583.761 353.69 611.822 375.209C632.669 391.202 648.236 416.254 659.402 451.797C663.387 464.479 666.629 477.601 669.765 490.289C673.8 506.624 677.973 523.511 683.764 539.581C695.993 573.515 713.817 597.522 736.681 610.927C760.583 624.929 797.855 627.135 819.849 603.637L820.909 604.63C798.4 628.676 760.334 626.467 735.946 612.178C735.07 611.665 734.198 611.136 733.338 610.593L733.339 610.597Z" fill="#500102"/>
<path d="M266.123 249.014C259.404 244.771 252.956 240.001 246.875 234.625C229.965 219.674 216.76 200.814 203.99 182.574C201.676 179.268 199.363 175.966 197.032 172.687C181.881 151.389 164.713 129.875 141.839 116.745C116.646 102.286 87.2743 101.348 67.0074 114.352L66.2223 113.129C86.9401 99.8349 116.906 100.76 142.56 115.485C165.662 128.748 182.966 150.412 198.213 171.847C200.548 175.129 202.862 178.435 205.177 181.744C217.901 199.915 231.056 218.704 247.836 233.542C290.774 271.508 352.558 279.209 395.292 281.693C408.093 282.438 421.185 282.86 433.846 283.266C473.436 284.54 514.373 285.856 552.846 297.253C613.699 315.28 667.11 359.866 695.718 416.515C703.011 430.958 708.868 446.321 714.533 461.18C718.639 471.945 722.881 483.078 727.634 493.765C741.385 524.672 757.635 546.028 777.307 559.056C802.174 575.532 834.174 576.992 855.182 562.667L856.001 563.866C834.518 578.518 801.819 576.993 776.505 560.267C756.594 547.08 740.174 525.52 726.308 494.356C721.537 483.633 717.285 472.482 713.177 461.696C707.524 446.873 701.682 431.544 694.423 417.169C665.991 360.868 612.913 316.56 552.434 298.643C514.14 287.3 473.296 285.988 433.799 284.717C421.131 284.309 408.028 283.89 395.209 283.143C358.293 280.994 307.224 274.965 266.124 249.017L266.123 249.014Z" fill="#880404"/>
<path d="M321.45 403.954C308.959 396.068 298.516 386.248 290.626 374.676C269.396 343.544 268.099 303.444 269.634 268.324C269.866 262.998 270.152 257.655 270.441 252.302C272.108 221.268 273.835 189.178 264.557 159.413C249.159 110.016 202.387 72.5969 150.814 68.4212L150.931 66.9748C203.082 71.1977 250.377 109.033 265.945 158.982C275.301 188.996 273.568 221.218 271.893 252.382C271.605 257.733 271.318 263.073 271.084 268.391C269.563 303.273 270.836 343.08 291.826 373.864C316.486 410.023 366.56 428.933 425.769 424.439C452.042 422.444 478.271 416.673 503.639 411.09C526.621 406.033 550.386 400.801 574.172 398.376C602.721 395.464 673.346 393.958 712.471 442.726C726.088 459.698 733.827 480.6 741.311 500.814L742.274 503.412C750.404 525.332 758.935 546.343 773.827 562.473C790.69 580.737 814.239 588.958 833.822 583.408L834.217 584.804C814.115 590.502 789.994 582.127 772.758 563.457C757.69 547.133 749.096 525.978 740.912 503.918L739.95 501.318C732.506 481.213 724.809 460.423 711.339 443.634C672.667 395.43 602.634 396.936 574.321 399.821C550.62 402.237 526.896 407.459 503.954 412.507C478.539 418.101 452.258 423.885 425.88 425.885C385.034 428.984 348.468 421.009 321.454 403.957L321.45 403.954Z" fill="#500102"/>
<path d="M423.649 439.143C367.998 404.011 345.884 333.037 334.029 282.005C331.946 273.037 329.923 263.818 327.97 254.903C316.255 201.464 304.141 146.206 270.254 103.509C231.139 54.226 165.717 28.8001 103.584 38.7363L103.355 37.3022C133.878 32.4199 165.918 36.0205 196.013 47.7175C226.108 59.4109 252.174 78.3937 271.39 102.604C305.485 145.562 317.636 200.988 329.387 254.588C331.341 263.501 333.361 272.716 335.442 281.672C347.624 334.107 370.675 407.7 429.938 441.21C460.216 458.334 498.293 464.466 549.774 460.513C563.68 459.444 577.798 457.787 591.45 456.182C618.128 453.048 645.718 449.808 673.003 450.821C700.867 451.856 752.443 459.158 784.795 496.451C804.087 518.689 813.392 548.241 821.598 574.316L837.294 624.188L835.909 624.624L820.212 574.752C812.048 548.812 802.793 519.411 783.698 497.402C751.703 460.526 700.579 453.299 672.948 452.272C645.772 451.261 618.241 454.495 591.617 457.623C577.949 459.227 563.818 460.891 549.884 461.961C498.102 465.937 459.762 459.747 429.222 442.476C427.329 441.405 425.469 440.292 423.647 439.142L423.649 439.143Z" fill="#880404"/>
</g>
</svg>
